# xmcd
#
# Track frame offsets:
# 150
# 17552
# 35955
# 52011
# 56461
# 71651
# 87799
# 102923
# 121924
# 140031
# 154553
# 178942
#
# Disc length: 2539 seconds
#
# Revision: 1
# Processed by: cddbd v1.4PL0 Copyright (c) Steve Scherf et al.
# Submitted via: CedeCatalogueitor 2.5 http://usuarios.lycos.es/kakasboy
#
DISCID=a609e90c
DTITLE=Elefantes - La Forma De Mover Tus Manos Y Otros Paisajes
DYEAR=2003
DGENRE=
TTITLE0=Que Yo No Lo Sabia (con Antonio Vega)
TTITLE1=Poco A Poco
TTITLE2=Qudemonos Juntitos
TTITLE3=Luz
TTITLE4=Para Que Sirven Las Cosas
TTITLE5=Cada Parte De Ti (con Acento Del Sur)
TTITLE6=Cerca De Mi (con Piano)
TTITLE7=Por Verte Pasar ( Guitarra Española)
TTITLE8=Me Falta El Aliento ( Acustica)
TTITLE9=Lucha De Gigantes (con Antonio Vega)
TTITLE10=Cada Parte De Ti (b-side)
TTITLE11=Perro Bambi
EXTD=
EXTT0=
EXTT1=
EXTT2=
EXTT3=
EXTT4=
EXTT5=
EXTT6=
EXTT7=
EXTT8=
EXTT9=
EXTT10=
EXTT11=
PLAYORDER=
